<?xml version="1.0" standalone="no"?>
<!DOCTYPE svg PUBLIC "-//W3C//DTD SVG 20010904//EN"
 "http://www.w3.org/TR/2001/REC-SVG-20010904/DTD/svg10.dtd">
<svg version="1.0" xmlns="http://www.w3.org/2000/svg"
 width="256.000000pt" height="89.000000pt" viewBox="0 0 256.000000 89.000000"
 preserveAspectRatio="xMidYMid meet">

<g transform="translate(0.000000,89.000000) scale(0.100000,-0.100000)"
fill="#000000" stroke="none">
<path d="M1846 808 c-9 -12 -16 -30 -16 -39 0 -38 70 -65 98 -37 20 20 15 76
-7 88 -31 16 -59 12 -75 -12z"/>
<path d="M4 730 c38 -386 337 -683 729 -725 l67 -7 0 65 0 65 -77 11 c-325 48
-549 278 -588 604 l-7 57 -65 0 -66 0 7 -70z"/>
<path d="M270 770 c0 -162 127 -361 281 -437 70 -36 165 -63 216 -63 l33 0 0
64 0 64 -54 6 c-103 13 -215 82 -276 171 -33 48 -70 151 -70 195 l0 30 -65 0
-65 0 0 -30z"/>
<path d="M540 768 c0 -40 28 -102 64 -145 33 -39 119 -83 163 -83 l33 0 0 65
c0 63 -1 65 -26 65 -17 0 -40 14 -65 39 -25 25 -39 48 -39 65 0 25 -2 26 -65
26 l-65 0 0 -32z"/>
<path d="M880 600 l0 -200 98 0 c120 0 163 12 197 52 22 26 26 39 22 71 -6 41
-31 77 -54 77 -20 0 -16 10 12 32 20 15 25 28 25 63 0 81 -47 105 -201 105
l-99 0 0 -200z m175 110 c37 -14 32 -60 -8 -73 -41 -13 -57 -3 -57 36 0 49 13
57 65 37z m10 -140 c22 -8 26 -15 23 -42 -2 -27 -9 -34 -35 -41 -50 -15 -63
-4 -63 48 0 41 2 45 24 45 14 0 37 -4 51 -10z"/>
<path d="M1306 690 c-34 -11 -72 -44 -79 -71 -5 -17 0 -19 40 -19 29 0 53 7
69 19 26 20 56 18 75 -6 19 -22 1 -31 -81 -43 -90 -13 -120 -35 -120 -90 0
-87 131 -118 188 -45 23 28 32 31 32 11 0 -23 41 -46 82 -46 36 0 38 2 38 30
0 18 -6 33 -15 36 -11 5 -15 23 -15 78 0 89 -21 130 -77 145 -44 13 -96 13
-137 1z m99 -206 c-20 -31 -37 -38 -71 -30 -19 5 -25 12 -22 29 2 17 13 24 53
33 56 12 65 5 40 -32z"/>
<path d="M1624 689 c-42 -12 -58 -34 -57 -76 1 -44 21 -66 86 -93 69 -30 80
-39 66 -56 -17 -20 -47 -17 -61 6 -10 15 -24 20 -55 20 -37 0 -43 -3 -43 -20
0 -35 42 -67 97 -75 96 -13 163 23 163 87 0 37 -28 63 -101 95 -42 18 -59 31
-57 42 4 22 46 27 54 7 8 -20 94 -23 94 -3 0 56 -99 92 -186 66z"/>
<path d="M2063 688 c-70 -24 -111 -103 -93 -182 22 -98 141 -142 243 -89 25
12 67 66 67 86 0 4 -24 7 -53 7 -41 0 -55 -4 -65 -20 -15 -24 -54 -26 -76 -4
-18 18 -21 85 -6 115 14 25 62 25 85 -1 13 -15 31 -20 67 -20 26 0 48 3 48 8
0 20 -42 73 -69 87 -40 20 -108 27 -148 13z"/>
<path d="M2350 687 c-40 -14 -63 -51 -54 -87 9 -38 23 -51 91 -81 70 -32 79
-42 58 -59 -19 -15 -65 -5 -65 15 0 11 -12 15 -45 15 -39 0 -45 -3 -45 -20 0
-35 42 -67 97 -75 96 -13 163 23 163 87 0 37 -28 63 -101 95 -42 18 -59 31
-57 42 4 22 46 27 54 7 8 -20 94 -23 94 -3 0 58 -104 93 -190 64z"/>
<path d="M1840 543 l0 -143 50 0 50 0 0 143 0 142 -50 0 -50 0 0 -142z"/>
<path d="M1527 308 c-3 -13 -6 -54 -6 -93 0 -114 1 -115 73 -113 l61 2 -57 3
-58 4 0 49 0 49 53 4 52 3 -52 2 -53 2 0 50 0 49 58 4 57 3 -61 2 c-57 2 -62
0 -67 -20z"/>
<path d="M1874 257 c-21 -19 -27 -32 -27 -67 0 -76 70 -114 127 -69 21 16 26
17 26 5 0 -23 -20 -70 -33 -78 -26 -16 -66 -8 -86 19 -12 14 -24 23 -28 19 -3
-3 4 -17 17 -31 31 -33 88 -34 118 -2 20 21 22 34 21 123 -1 54 -3 91 -6 81
-4 -16 -6 -16 -30 3 -34 26 -66 25 -99 -3z m90 -3 c23 -9 39 -66 26 -98 -27
-72 -130 -43 -130 36 0 53 50 83 104 62z"/>
<path d="M1680 265 c-6 -30 -5 -157 2 -161 4 -3 8 21 8 54 0 48 4 62 23 80 50
47 85 21 96 -73 l8 -70 2 68 c1 55 -3 71 -19 87 -25 25 -64 26 -89 1 -20 -20
-20 -20 -24 2 -2 12 -5 18 -7 12z"/>
<path d="M2062 254 c-12 -8 -22 -22 -22 -31 0 -12 7 -9 25 11 35 38 105 30
105 -13 0 -20 -26 -31 -73 -31 -16 0 -37 -5 -48 -10 -21 -12 -25 -50 -7 -68
20 -20 83 -15 103 8 l18 20 14 -20 c8 -11 19 -20 26 -20 8 0 8 3 -1 12 -7 7
-12 36 -12 65 0 40 -5 58 -20 73 -24 24 -77 26 -108 4z m84 -121 c-33 -28 -81
-30 -95 -5 -16 29 4 46 61 52 63 6 76 -11 34 -47z"/>
<path d="M2245 245 c-49 -48 -17 -145 48 -145 13 0 37 10 52 22 l28 22 -6 -34
c-15 -70 -68 -91 -112 -44 -14 15 -25 22 -25 15 0 -23 40 -51 74 -51 25 0 40
7 55 26 18 23 21 40 20 123 -1 53 -4 85 -8 73 l-6 -24 -19 21 c-26 29 -71 27
-101 -4z m96 -4 c28 -22 32 -83 6 -108 -19 -20 -70 -21 -91 -3 -25 20 -21 95
6 114 29 21 51 20 79 -3z"/>
<path d="M2426 249 c-21 -16 -26 -29 -26 -63 0 -51 31 -86 76 -86 35 0 74 25
74 47 0 11 -6 8 -21 -11 -20 -26 -61 -35 -85 -18 -11 7 -34 45 -34 56 0 3 34
6 75 6 80 0 84 3 60 49 -24 46 -74 55 -119 20z m94 -9 c38 -38 27 -50 -45 -50
-72 0 -78 8 -40 45 29 30 58 32 85 5z"/>
</g>
</svg>
