<svg width="191" height="46" viewBox="0 0 191 46" fill="none" xmlns="http://www.w3.org/2000/svg">
<g clip-path="url(#clip0_130076_6634)">
<path d="M85.714 31.1709V27.041H104.192L102.02 28.8923V22.3415C102.02 21.0598 101.877 20.0629 101.593 19.3509C101.308 18.6151 100.809 18.1048 100.097 17.82C99.409 17.5114 98.4478 17.3572 97.2135 17.3572C96.2404 17.3572 95.2792 17.4284 94.3298 17.5708C93.4041 17.6895 92.6802 17.8556 92.158 18.0692L95.113 15.2922C94.9706 15.8381 94.8282 16.5264 94.6858 17.3572C94.5671 18.1879 94.4603 19.0779 94.3654 20.0273C94.2704 20.953 94.223 21.8668 94.223 22.7687C94.223 23.5994 94.2586 24.4658 94.3298 25.3677C94.4247 26.2696 94.5196 27.0647 94.6146 27.753C94.7333 28.4413 94.8282 28.916 94.8994 29.1771L90.3779 30.4232C90.283 30.0909 90.1643 29.545 90.0219 28.7855C89.8795 28.026 89.7489 27.1241 89.6302 26.0797C89.5353 25.0354 89.4878 23.9317 89.4878 22.7687C89.4878 21.582 89.5472 20.4427 89.6659 19.3509C89.7845 18.2354 89.9151 17.2385 90.0575 16.3603C90.2236 15.4584 90.3779 14.7345 90.5203 14.1886C91.0899 13.9749 91.98 13.7613 93.1905 13.5477C94.401 13.3341 95.742 13.2273 97.2135 13.2273C99.3497 13.2273 101.118 13.524 102.518 14.1174C103.942 14.7107 104.999 15.672 105.687 17.0011C106.399 18.3303 106.755 20.1223 106.755 22.3771V31.1709H85.714ZM85.714 31.1709C85.4292 31.1709 85.2393 30.981 85.1444 30.6012C85.0494 30.2215 85.002 29.723 85.002 29.1059C85.002 28.4651 85.0494 27.9666 85.1444 27.6106C85.2393 27.2309 85.4292 27.041 85.714 27.041V31.1709Z" fill="#0D1726"/>
<path d="M81.9838 31.1709V27.0411H85.7221V31.1709H81.9838ZM67.5293 31.1709V27.0411H80.4529L77.2131 29.8537V23.8725C77.2131 22.1873 77.0351 20.8819 76.6791 19.9562C76.3468 19.0306 75.7772 18.3778 74.9702 17.9981C74.1869 17.6183 73.107 17.4285 71.7304 17.4285H68.8466V13.2986H71.7304C73.914 13.2986 75.7653 13.6546 77.2843 14.3667C78.8271 15.0787 79.9901 16.218 80.7734 17.7845C81.5803 19.3272 81.9838 21.3566 81.9838 23.8725V31.1709H67.5293ZM85.7221 31.1709V27.0411C86.0069 27.0411 86.1968 27.231 86.2917 27.6107C86.3867 27.9667 86.4341 28.4652 86.4341 29.106C86.4341 29.7231 86.3867 30.2215 86.2917 30.6013C86.1968 30.9811 86.0069 31.1709 85.7221 31.1709Z" fill="#0D1726"/>
<path d="M45.5226 31.1709V27.041H60.8316L59.2295 28.3583V21.7718C59.2295 20.3478 58.7785 19.2678 57.8766 18.532C56.9984 17.7963 55.598 17.4284 53.6755 17.4284C53.1296 17.4284 52.382 17.4758 51.4326 17.5708C50.4832 17.642 49.4507 17.7607 48.3352 17.9268L47.8723 14.1529C48.8929 13.9156 49.9254 13.7139 50.9697 13.5477C52.0378 13.3816 53.0822 13.2985 54.1028 13.2985C56.049 13.2985 57.7579 13.6426 59.2295 14.331C60.701 14.9955 61.8522 15.9568 62.6829 17.2147C63.5374 18.4727 63.9646 19.9917 63.9646 21.7718V31.1709H45.5226ZM45.5226 31.1709C45.2378 31.1709 45.0479 30.981 44.953 30.6012C44.858 30.2215 44.8105 29.723 44.8105 29.1059C44.8105 28.4651 44.858 27.9666 44.953 27.6106C45.0479 27.2309 45.2378 27.041 45.5226 27.041V31.1709ZM51.6818 10.4859V6.42725H56.4525V10.4859H51.6818Z" fill="#0D1726"/>
<path d="M41.7798 31.1709V27.0411H45.518V31.1709H41.7798ZM32.1672 40.0003C31.289 40.0003 30.3633 39.9291 29.3902 39.7867C28.4408 39.668 27.4202 39.5019 26.3284 39.2883L27.0404 35.4788C28.2272 35.6212 29.2359 35.728 30.0666 35.7992C30.8974 35.8704 31.5975 35.906 32.1672 35.906C33.8761 35.906 35.1103 35.5975 35.8698 34.9804C36.6293 34.3633 37.0091 33.4376 37.0091 32.2034V16.574L38.184 17.4285H33.7337C32.7605 17.4285 31.9773 17.5471 31.3839 17.7845C30.7905 17.9981 30.3514 18.4609 30.0666 19.173C29.8055 19.8613 29.675 20.9175 29.675 22.3416C29.675 23.6945 29.7937 24.7151 30.031 25.4034C30.2921 26.0679 30.7193 26.507 31.3127 26.7207C31.9061 26.9343 32.7131 27.0411 33.7337 27.0411H37.0091V31.1709H33.7337C31.7162 31.1709 30.0548 30.8505 28.7493 30.2097C27.4439 29.5688 26.4708 28.5957 25.83 27.2903C25.2128 25.9849 24.9043 24.3353 24.9043 22.3416C24.9043 20.3478 25.2128 18.6864 25.83 17.3572C26.4708 16.0044 27.4439 14.9956 28.7493 14.3311C30.0548 13.6427 31.7162 13.2986 33.7337 13.2986H41.7798V32.2034C41.7798 33.8174 41.3763 35.2059 40.5693 36.3689C39.7861 37.5556 38.6705 38.4575 37.2227 39.0747C35.7986 39.6918 34.1134 40.0003 32.1672 40.0003ZM45.518 31.1709V27.0411C45.8029 27.0411 45.9927 27.231 46.0877 27.6107C46.1826 27.9667 46.2301 28.4652 46.2301 29.106C46.2301 29.7231 46.1826 30.2215 46.0877 30.6013C45.9927 30.9811 45.8029 31.1709 45.518 31.1709Z" fill="#0D1726"/>
<path d="M10.7617 40.0002C8.69673 40.0002 6.84541 39.6204 5.2077 38.8609C3.59373 38.1251 2.32392 37.0927 1.39826 35.7635C0.472596 34.4344 0.00976562 32.9272 0.00976562 31.242C0.00976562 30.7673 0.0453679 30.1384 0.116573 29.3551C0.187777 28.5719 0.282717 27.6937 0.401391 26.7205C0.5438 25.7474 0.68621 24.7624 0.828619 23.7656C0.994763 22.745 1.14904 21.76 1.29145 20.8106L5.99095 21.4514C5.72987 23.0416 5.50439 24.5013 5.31451 25.8305C5.14837 27.1359 5.01782 28.2514 4.92288 29.1771C4.82795 30.1028 4.78048 30.7792 4.78048 31.2064C4.78048 32.1558 5.01782 32.9747 5.49252 33.663C5.96722 34.3513 6.64366 34.8853 7.52185 35.2651C8.42378 35.6686 9.50372 35.8703 10.7617 35.8703C12.0671 35.8703 13.1233 35.6805 13.9303 35.3007C14.7373 34.9209 15.3188 34.3988 15.6748 33.7342C16.0545 33.0696 16.2444 32.322 16.2444 31.4913V6H21.0151V31.4913C21.0151 33.2002 20.5642 34.6955 19.6622 35.9771C18.7841 37.2588 17.5736 38.2438 16.0308 38.9321C14.488 39.6442 12.7317 40.0002 10.7617 40.0002Z" fill="#0D1726"/>
<g clip-path="url(#clip1_130076_6634)">
<path fill-rule="evenodd" clip-rule="evenodd" d="M149.023 5.43401C152.18 5.49654 155.206 6.5643 157.87 8.2192C162.537 11.1656 165.984 15.6464 169.058 20.1771C167.057 23.2375 165.095 27.3819 162.654 29.9809C161.879 30.8064 160.861 31.518 159.672 31.3457C158.029 31.1066 156.925 29.2693 156.244 27.9212C155.266 25.9838 154.532 23.8045 153.823 21.7504C152.929 19.1689 151.706 12.4512 147.936 12.4637C144.353 12.4804 140.231 20.6469 138.852 23.357C137.471 26.0699 133.902 34.4005 131.953 36.1183C131.03 36.9355 129.724 37.7444 128.456 37.244C125.766 36.1767 126.313 30.5785 126.658 28.3909C127.411 23.5961 129.413 18.5538 132.192 14.579C134.06 11.9133 136.401 9.54508 139.236 7.91066L139.255 7.89954L139.275 7.8912C142.388 6.31793 145.671 5.35896 149.026 5.43123M171.741 15.7019C170.748 14.2704 169.784 12.8389 168.725 11.4547C166.426 8.45546 163.774 5.62858 160.606 3.53275C154.433 -0.556287 147.002 -0.72395 140.089 1.59257C130.33 5.60079 123.692 14.7124 120.999 24.6996C119.906 28.7551 119.375 33.3748 120.065 37.5442C120.532 40.3711 121.716 43.6928 124.343 45.2049C126.211 46.2778 128.345 46.15 130.338 45.5162C138.383 42.9562 141.276 25.4501 145.89 25.2055C148.976 25.0415 151.369 33.6194 152.411 35.9265C153.301 37.8945 155.541 42.8978 157.976 43.248C161.509 43.7595 169.917 27.1985 171.296 24.2882L171.588 23.6739C173.792 26.8343 175.899 30.0587 178.048 33.2636C179.396 35.2733 184.941 43.3675 188.218 42.0333C189.822 41.3829 190.459 38.606 190.698 37.1078C191.359 32.9412 190.845 27.8572 190.02 23.8046C189.297 20.255 188.135 16.4135 186.367 13.242C185.239 11.2129 183.348 8.58889 180.886 8.1636C177.233 7.52985 173.967 12.1023 172.347 14.7235L171.738 15.7075L171.741 15.7019ZM174.198 19.207L174.37 18.8374C175.276 16.8805 177.428 13.2448 179.952 13.3782C183.571 13.5728 185.528 20.5774 186.451 23.4376C187.179 25.6947 189.514 35.8236 186.829 36.8021C184.302 37.5637 176.324 22.5176 174.195 19.207H174.198Z" fill="url(#paint0_linear_130076_6634)"/>
<path fill-rule="evenodd" clip-rule="evenodd" d="M163.154 38.5506C166.668 33.5611 170.412 26.1423 171.293 24.2828L171.585 23.6685C170.74 22.5038 170.22 21.6143 169.053 20.1772C167.824 22.0813 166.701 24.0215 165.534 25.9589C164.68 27.3737 163.782 28.7746 162.648 29.9838C162.006 30.6675 161.195 31.2763 160.258 31.3652C160.833 33.5667 161.856 36.5993 163.157 38.5506" fill="url(#paint1_linear_130076_6634)"/>
<path fill-rule="evenodd" clip-rule="evenodd" d="M171.73 15.7214L174.188 19.2265C175.172 17.1557 177.265 13.2559 179.944 13.3976L180.881 8.1775C177.229 7.54375 173.963 12.1162 172.342 14.7374L171.733 15.7214H171.73Z" fill="url(#paint2_linear_130076_6634)"/>
</g>
</g>
<defs>
<linearGradient id="paint0_linear_130076_6634" x1="118.679" y1="26.1269" x2="192.649" y2="26.1269" gradientUnits="userSpaceOnUse">
<stop stop-color="#4CD9EC"/>
<stop offset="1" stop-color="#2889C2"/>
</linearGradient>
<linearGradient id="paint1_linear_130076_6634" x1="170.742" y1="21.5207" x2="164.782" y2="31.236" gradientUnits="userSpaceOnUse">
<stop stop-color="#007CBB"/>
<stop offset="1" stop-color="#007CBB" stop-opacity="0"/>
</linearGradient>
<linearGradient id="paint2_linear_130076_6634" x1="172.948" y1="17.6465" x2="174.711" y2="11.422" gradientUnits="userSpaceOnUse">
<stop stop-color="#007CBB"/>
<stop offset="1" stop-color="#007CBB" stop-opacity="0"/>
</linearGradient>
<clipPath id="clip0_130076_6634">
<rect width="190.99" height="46" fill="white" transform="translate(0.00976562)"/>
</clipPath>
<clipPath id="clip1_130076_6634">
<rect width="71.2445" height="46" fill="white" transform="translate(119.756)"/>
</clipPath>
</defs>
</svg>
